<?xml version="1.0" standalone="no"?><!DOCTYPE svg PUBLIC "-//W3C//DTD SVG 1.1//EN" "http://www.w3.org/Graphics/SVG/1.1/DTD/svg11.dtd"><svg t="1695634281119" class="icon" viewBox="0 0 1024 1024" version="1.1" xmlns="http://www.w3.org/2000/svg" p-id="5601" xmlns:xlink="http://www.w3.org/1999/xlink" width="200" height="200"><path d="M650.88 321.92c-25.152-22.592-58.432-33.92-99.84-33.92-47.36 0-84.48 13.632-111.36 40.96-26.88 26.88-40.32 63.552-40.32 110.08h67.2c0-28.16 5.76-49.92 17.28-65.28 12.8-18.368 33.728-27.52 62.72-27.52 23.488 0 41.6 6.4 54.4 19.2 12.352 13.248 18.56 30.72 18.56 52.48 0 15.808-5.952 31.36-17.92 46.72l-10.88 12.16c-40.128 35.84-64.192 62.272-72.32 79.36-8.512 15.808-12.8 36.032-12.8 60.8v10.88h68.48v-10.88c0-15.808 3.392-29.888 10.24-42.24a98.56 98.56 0 0 1 26.88-33.28c30.272-26.432 48.192-43.072 53.76-49.92 16.192-20.928 24.32-46.912 24.32-78.08 0-38.848-12.8-69.312-38.4-91.52zM573.44 675.2a45.888 45.888 0 0 0-33.92-12.8 45.056 45.056 0 0 0-33.28 12.8 41.856 41.856 0 0 0-13.44 32.64c0 12.8 4.48 23.68 13.44 32.64 8.96 8.96 20.032 13.44 33.28 13.44 12.8 0 23.872-4.288 33.28-12.8a45.504 45.504 0 0 0 14.08-33.28 41.856 41.856 0 0 0-13.44-32.64z" p-id="5602"></path><path d="M192 192a64 64 0 0 1 64-64h576a64 64 0 0 1 64 64v640a64 64 0 0 1-64 64H256a64 64 0 0 1-64-64v-96H128a32 32 0 0 1 0-64h64v-128H128a32 32 0 0 1 0-64h64v-128H128a32 32 0 0 1 0-64h64V192z m640 0H256v640h576V192z" p-id="5603"></path></svg>