<?xml version="1.0" standalone="no"?><!DOCTYPE svg PUBLIC "-//W3C//DTD SVG 1.1//EN" "http://www.w3.org/Graphics/SVG/1.1/DTD/svg11.dtd"><svg t="1695633538666" class="icon" viewBox="0 0 1024 1024" version="1.1" xmlns="http://www.w3.org/2000/svg" p-id="2489" xmlns:xlink="http://www.w3.org/1999/xlink" width="200" height="200"><path d="M 340.11 511.12 h -99.32 V 121.77 a 21.5 21.5 0 0 0 -43 0 v 389.35 H 98 a 21.51 21.51 0 0 0 -21.5 21.5 v 107.14 a 21.5 21.5 0 0 0 21.5 21.5 h 99.56 v 245.6 a 21.5 21.5 0 0 0 43 0 v -245.6 h 99.55 a 21.5 21.5 0 0 0 21.5 -21.5 V 532.62 a 21.51 21.51 0 0 0 -21.5 -21.5 Z m -21.5 107.14 H 119.5 v -64.14 h 199.11 Z M 633.09 270.12 h -99.32 V 121.77 a 21.5 21.5 0 1 0 -43 0 v 148.35 H 391 a 21.51 21.51 0 0 0 -21.5 21.5 v 107.14 a 21.5 21.5 0 0 0 21.5 21.5 h 99.56 v 486.6 a 21.5 21.5 0 0 0 43 0 v -486.6 h 99.55 a 21.5 21.5 0 0 0 21.5 -21.5 V 291.62 a 21.51 21.51 0 0 0 -21.52 -21.5 Z m -21.5 107.14 H 412.48 v -64.14 h 199.11 Z M 924.29 649.12 h -99.56 V 121.77 a 21.5 21.5 0 1 0 -43 0 v 527.35 h -99.55 a 21.51 21.51 0 0 0 -21.5 21.5 v 107.14 a 21.5 21.5 0 0 0 21.5 21.5 h 99.55 v 107.6 a 21.5 21.5 0 1 0 43 0 v -107.6 h 99.56 a 21.5 21.5 0 0 0 21.5 -21.5 V 670.62 a 21.51 21.51 0 0 0 -21.5 -21.5 Z m -21.5 107.14 H 703.68 v -64.14 h 199.11 Z" p-id="2490"></path></svg>