<?xml version="1.0" standalone="no"?><!DOCTYPE svg PUBLIC "-//W3C//DTD SVG 1.1//EN" "http://www.w3.org/Graphics/SVG/1.1/DTD/svg11.dtd"><svg t="1695633485879" class="icon" viewBox="0 0 1024 1024" version="1.1" xmlns="http://www.w3.org/2000/svg" p-id="1492" xmlns:xlink="http://www.w3.org/1999/xlink" width="200" height="200"><path d="M544 960h-0.384a32 32 0 0 1-31.488-29.568l-36.288-471.232-28.032 280a32 32 0 0 1-30.72 28.8H416a32 32 0 0 1-31.552-26.752l-42.88-256.896-23.168 69.76a32.128 32.128 0 0 1-28.16 21.824 32.576 32.576 0 0 1-30.848-17.6l-44.16-88.32-32.64 32.64A32 32 0 0 1 160 512h-128a32 32 0 1 1 0-64h114.752l54.592-54.656a32 32 0 0 1 51.2 8.32l29.504 58.88 39.552-118.656a33.536 33.536 0 0 1 32.896-21.76 32 32 0 0 1 29.056 26.624l24.512 147.008 40.128-400.96c1.6-16.512 17.024-28.032 32.192-28.8a32 32 0 0 1 31.488 29.568l36.288 471.232 28.032-280a32 32 0 0 1 30.72-28.8H608a32 32 0 0 1 31.552 26.752l42.88 256.896 23.168-69.76a32.128 32.128 0 0 1 59.008-4.224l44.16 88.32 32.64-32.64A32 32 0 0 1 864 512h128a32 32 0 1 1 0 64h-114.752l-54.592 54.656a32 32 0 0 1-51.2-8.32l-29.504-58.88-39.552 118.656a31.36 31.36 0 0 1-32.896 21.76 32 32 0 0 1-29.056-26.624l-24.512-147.008-40.128 400.96A32 32 0 0 1 544 960z" p-id="1493"></path></svg>
