<?xml version="1.0" standalone="no"?><!DOCTYPE svg PUBLIC "-//W3C//DTD SVG 1.1//EN" "http://www.w3.org/Graphics/SVG/1.1/DTD/svg11.dtd"><svg t="1695633631284" class="icon" viewBox="0 0 1024 1024" version="1.1" xmlns="http://www.w3.org/2000/svg" p-id="4700" xmlns:xlink="http://www.w3.org/1999/xlink" width="200" height="200"><path d="M759.402978 468.668247a312.987877 312.987877 0 0 1 102.09863 17.073733v-414.811495A70.919015 70.919015 0 0 0 790.548216 0.000011H93.51594A70.919015 70.919015 0 0 0 22.596925 70.919026v835.982668a70.930474 70.930474 0 0 0 70.861721 70.987769h422.087884c-108.332262-134.744982-86.915613-331.80336 47.829369-440.124163A313.06809 313.06809 0 0 1 759.402978 468.668247zM184.167148 186.481842h506.539838c25.209538 0 45.170909 17.004979 45.170909 37.814307s-20.282219 37.814308-45.170909 37.814308H184.098395c-25.209538 0-45.15945-16.890391-45.15945-37.814308s20.282219-37.79139 45.15945-37.791389z m0 186.012016h295.971439c25.209538 0 45.170909 17.004979 45.170909 37.814308s-20.282219 37.814308-45.170909 37.814307H184.098395c-25.209538 0-45.15945-16.947685-45.15945-37.814307s20.282219-37.79139 45.15945-37.79139z m181.714936 261.732303H184.098395c-25.209538 0-45.15945-17.004979-45.15945-37.814308s20.282219-37.814308 45.15945-37.814307h181.783689c25.209538 0 45.15945 17.004979 45.15945 37.814307s-20.534315 37.814308-45.15945 37.814308z" p-id="4701"></path><path d="M759.402978 539.873734c-133.690765 0-242.09178 108.309344-242.126157 242.000109s108.309344 242.09178 242.000109 242.126157 242.09178-108.320803 242.126157-242.000109v-0.126048c-0.068753-133.64493-108.401015-241.965733-242.000109-242.000109z m121.212043 290.494094H751.301549A27.398185 27.398185 0 0 1 723.880446 802.969643V625.654918a27.409644 27.409644 0 0 1 54.807828 0v149.916541h101.846535a27.398185 27.398185 0 0 1 0 54.796369z" p-id="4702"></path></svg>